<svg width="1898" height="873" viewBox="0 0 1898 873" fill="none" xmlns="http://www.w3.org/2000/svg">
<path d="M1896.5 439C1896.5 557.901 1791.05 666.03 1619.42 744.52C1447.92 822.95 1210.89 871.5 949 871.5C687.106 871.5 450.078 822.95 278.579 744.52C106.949 666.03 1.5 557.901 1.5 439C1.5 320.099 106.949 211.97 278.579 133.48C450.078 55.0496 687.106 6.5 949 6.5C1210.89 6.5 1447.92 55.0496 1619.42 133.48C1791.05 211.97 1896.5 320.099 1896.5 439Z" stroke="white" stroke-width="3"/>
<path d="M1499.33 6.57456L1526.69 68.1357C1527.16 69.1919 1528.06 69.9935 1529.16 70.3338L1601.4 92.5887C1603.28 93.1683 1603.28 95.8317 1601.4 96.4113L1529.16 118.666C1528.06 119.006 1527.16 119.808 1526.69 120.864L1499.33 182.425C1498.62 184.009 1496.38 184.009 1495.67 182.425L1468.31 120.864C1467.84 119.808 1466.94 119.006 1465.84 118.666L1393.6 96.4113C1391.72 95.8317 1391.72 93.1683 1393.6 92.5887L1465.84 70.3338C1466.94 69.9935 1467.84 69.1919 1468.31 68.1357L1495.67 6.57457C1496.38 4.99091 1498.62 4.99091 1499.33 6.57456Z" stroke="white" stroke-width="2"/>
<path d="M1637.83 171.615L1645.34 188.607C1645.8 189.665 1646.71 190.469 1647.81 190.811L1666.46 196.59C1668.33 197.171 1668.33 199.829 1666.46 200.41L1647.81 206.189C1646.71 206.531 1645.8 207.335 1645.34 208.393L1637.83 225.385C1637.13 226.974 1634.87 226.974 1634.17 225.385L1626.66 208.393C1626.2 207.335 1625.29 206.531 1624.19 206.189L1605.54 200.41C1603.67 199.829 1603.67 197.171 1605.54 196.59L1624.19 190.811C1625.29 190.469 1626.2 189.665 1626.66 188.607L1634.17 171.615C1634.87 170.026 1637.13 170.026 1637.83 171.615Z" stroke="white" stroke-width="2"/>
</svg>
