<svg width="535" height="237" viewBox="0 0 535 237" fill="none" xmlns="http://www.w3.org/2000/svg">
<path d="M126.304 64.088L125.344 61.304L123.232 61.208H122.368C121.6 61.208 120.64 61.336 119.488 61.592C118.336 61.848 117.472 62.008 116.896 62.072H115.264V80.504C115.264 92.792 114.944 98.936 114.304 98.936C113.536 98.936 112.64 98.424 111.616 97.4C110.528 96.44 109.888 95.96 109.696 95.96C109.568 95.96 109.504 96.056 109.504 96.248C109.504 96.824 109.984 98.008 110.944 99.8C111.328 100.44 111.52 101.08 111.52 101.72C111.52 102.936 110.944 103.736 109.792 104.12C109.088 104.312 108.736 104.504 108.736 104.696C108.736 104.824 109.024 104.888 109.6 104.888C110.176 104.888 110.656 104.856 111.04 104.792C111.936 104.664 112.448 104.6 112.576 104.6C113.344 104.6 113.888 104.856 114.208 105.368C114.528 105.816 114.784 106.712 114.976 108.056L115.36 110.456L116.608 108.344C117.376 107 117.984 106.104 118.432 105.656C118.88 105.208 119.392 104.984 119.968 104.984C120.352 104.984 120.672 105.016 120.928 105.08C121.952 105.272 122.464 105.24 122.464 104.984C122.464 104.92 122.432 104.824 122.368 104.696C122.112 104.184 121.792 103.832 121.408 103.64C120.96 103.448 120.736 103.064 120.736 102.488C120.736 101.656 121.056 100.92 121.696 100.28C122.336 99.64 122.656 99.16 122.656 98.84C122.656 98.52 122.144 98.36 121.12 98.36C120.16 98.36 119.68 98.136 119.68 97.688C119.68 97.624 119.744 97.144 119.872 96.248C120 95.672 120.16 94.488 120.352 92.696C120.608 90.84 120.864 89.144 121.12 87.608C121.376 86.072 121.632 84.952 121.888 84.248C122.144 83.48 122.4 82.52 122.656 81.368C122.656 80.856 122.816 80.568 123.136 80.504C123.456 80.44 123.84 80.632 124.288 81.08C124.672 81.464 125.152 82.328 125.728 83.672C126.304 84.952 126.976 86.744 127.744 89.048C128.576 91.352 129.056 92.632 129.184 92.888C130.016 95 131.072 98.36 132.352 102.968C132.8 104.632 133.088 105.528 133.216 105.656C133.28 105.72 135.04 105.816 138.496 105.944L143.584 106.136L144.832 102.68C145.92 99.608 146.592 97.528 146.848 96.44C147.936 92.472 149.152 88.824 150.496 85.496C151.84 82.168 152.768 80.504 153.28 80.504C153.856 80.504 154.4 87.256 154.912 100.76L155.2 106.904H159.328C162.016 106.904 163.36 106.68 163.36 106.232C163.36 106.168 163.36 106.136 163.36 106.136L163.264 105.944C162.752 104.472 162.24 100.312 161.728 93.464C161.216 86.616 160.96 80.792 160.96 75.992C160.96 68.696 160.864 64.536 160.672 63.512C160.544 62.616 160.352 62.072 160.096 61.88C159.84 61.688 159.168 61.56 158.08 61.496C157.888 61.496 157.504 61.496 156.928 61.496C156.416 61.432 156 61.4 155.68 61.4C155.36 61.4 154.944 61.432 154.432 61.496C153.92 61.496 153.568 61.496 153.376 61.496C152.352 61.624 151.648 61.784 151.264 61.976C150.944 62.104 150.656 62.456 150.4 63.032C149.696 64.76 148.704 67.32 147.424 70.712C146.208 74.04 145.12 76.888 144.16 79.256C143.264 81.56 142.24 83.928 141.088 86.36C139.744 89.112 138.752 90.488 138.112 90.488C137.472 90.488 137.152 90.232 137.152 89.72C137.152 89.208 135.584 85.624 132.448 78.968C130.08 73.976 128.032 69.016 126.304 64.088ZM118.72 60.152C119.232 59.768 120.576 59.576 122.752 59.576C124.416 59.576 125.408 59.64 125.728 59.768C126.112 59.896 126.496 60.344 126.88 61.112C127.072 61.496 127.552 62.84 128.32 65.144C129.152 67.448 129.76 68.824 130.144 69.272C130.528 69.784 131.008 71 131.584 72.92C131.968 74.136 132.48 75.48 133.12 76.952C133.824 78.424 134.592 80.024 135.424 81.752C136.256 83.48 136.864 84.728 137.248 85.496L138.496 88.184L139.744 85.496C140.192 84.472 140.832 82.936 141.664 80.888C142.496 78.84 143.136 77.304 143.584 76.28C143.904 75.576 145.664 70.904 148.864 62.264L149.632 60.248L152.704 59.96C154.24 59.832 155.232 59.768 155.68 59.768C156.256 59.768 157.088 59.8 158.176 59.864C159.328 59.928 160.224 59.96 160.864 59.96L162.496 60.152V72.152C162.496 77.72 162.752 84.312 163.264 91.928C163.776 99.48 164.288 104.024 164.8 105.56C165.056 106.2 165.056 106.872 164.8 107.576C164.736 107.896 164.64 108.12 164.512 108.248C164.448 108.312 164.256 108.408 163.936 108.536C163.68 108.6 163.264 108.632 162.688 108.632C161.728 108.632 160.896 108.6 160.192 108.536C156.672 108.408 154.688 108.12 154.24 107.672C153.856 107.224 153.568 105.112 153.376 101.336C153.056 95.768 152.832 91.896 152.704 89.72L152.416 84.92L150.496 90.776C147.872 99.224 146.048 104.568 145.024 106.808C144.768 107.448 144.544 107.864 144.352 108.056C144.16 108.248 143.84 108.28 143.392 108.152C143.2 108.088 142.08 107.992 140.032 107.864C138.048 107.672 136.16 107.48 134.368 107.288C132.576 107.032 131.68 106.776 131.68 106.52C131.68 106.2 131.424 105.272 130.912 103.736C130.784 103.288 130.528 102.488 130.144 101.336C129.824 100.184 129.6 99.384 129.472 98.936C128.384 95.416 127.36 92.76 126.4 90.968C126.08 90.392 125.728 89.4 125.344 87.992C124.96 86.52 124.64 85.528 124.384 85.016L123.808 83.864L123.328 85.304C123.072 85.816 122.752 87.512 122.368 90.392C121.984 93.208 121.76 95.256 121.696 96.536C121.696 96.792 122.176 96.92 123.136 96.92C124.352 96.92 124.96 97.4 124.96 98.36C124.96 98.872 124.736 99.384 124.288 99.896C123.136 101.112 122.56 101.912 122.56 102.296C122.56 102.552 122.944 103.064 123.712 103.832C124.672 104.792 125.152 105.656 125.152 106.424C125.152 107.064 124.864 107.384 124.288 107.384C124.16 107.384 123.936 107.352 123.616 107.288C123.296 107.224 122.912 107.16 122.464 107.096C122.016 107.032 121.632 106.968 121.312 106.904C120.416 106.776 119.936 106.712 119.872 106.712C119.36 106.712 118.944 107.16 118.624 108.056C117.152 111.896 116.064 113.816 115.36 113.816C114.72 113.816 114.08 111.96 113.44 108.248C113.312 107.416 113.12 106.904 112.864 106.712C112.672 106.456 112.256 106.328 111.616 106.328C110.72 106.328 109.76 106.616 108.736 107.192C107.968 107.512 107.328 107.672 106.816 107.672C105.792 107.672 105.28 107.352 105.28 106.712C105.28 106.2 106.08 105.272 107.68 103.928L110.08 101.816L108.928 99.704C107.84 97.72 107.296 95.928 107.296 94.328C107.296 93.752 107.424 93.464 107.68 93.464C108.128 93.464 108.992 93.816 110.272 94.52C111.552 95.16 112.448 95.704 112.96 96.152C113.088 96.28 113.184 96.344 113.248 96.344C113.568 96.344 113.728 90.68 113.728 79.352C113.728 71.608 113.76 66.712 113.824 64.664C113.952 62.616 114.176 61.592 114.496 61.592C115.008 61.592 115.264 61.432 115.264 61.112C115.264 60.792 115.712 60.632 116.608 60.632C117.568 60.632 118.272 60.472 118.72 60.152ZM188.749 52.472C188.173 50.552 187.853 49.592 187.789 49.592C187.277 50.488 186.765 51.416 186.253 52.376C185.357 54.104 184.717 55.032 184.333 55.16C184.269 55.16 182.509 55.288 179.053 55.544H176.845L179.725 57.176C180.877 57.816 181.613 58.328 181.933 58.712C182.317 59.096 182.509 59.576 182.509 60.152C182.509 61.048 182.381 61.496 182.125 61.496C181.805 61.496 181.293 62.104 180.589 63.32L179.533 65.048L180.685 64.856C180.749 64.856 181.069 64.76 181.645 64.568C182.221 64.312 182.829 64.056 183.469 63.8C184.173 63.544 184.941 63.32 185.773 63.128C186.605 62.936 187.277 62.84 187.789 62.84C188.557 62.84 188.941 63.064 188.941 63.512C188.941 63.768 189.517 64.504 190.669 65.72C191.821 66.872 192.557 67.448 192.877 67.448C192.941 67.448 192.973 67.384 192.973 67.256C192.973 66.68 192.653 65.496 192.013 63.704C191.501 61.976 191.245 60.888 191.245 60.44C191.245 59.736 191.949 58.904 193.357 57.944L194.413 57.176L192.589 56.792C191.373 56.536 190.541 56.184 190.093 55.736C189.709 55.288 189.261 54.2 188.749 52.472ZM187.213 48.056C187.597 47.8 187.885 47.672 188.077 47.672C188.717 47.672 189.389 48.888 190.093 51.32L191.149 55.064L193.453 55.352C195.373 55.608 196.589 55.832 197.101 56.024C197.613 56.152 197.869 56.408 197.869 56.792C197.869 57.24 197.549 57.56 196.909 57.752C196.333 57.944 195.469 58.552 194.317 59.576L192.685 61.016L193.837 64.088C194.797 66.776 195.277 68.312 195.277 68.696C195.277 68.952 195.181 69.208 194.989 69.464C194.733 69.784 194.477 69.944 194.221 69.944C193.965 69.88 193.453 69.624 192.685 69.176C190.317 67.896 188.749 66.52 187.981 65.048C187.597 64.344 187.085 64.152 186.445 64.472C185.549 64.92 184.205 65.4 182.413 65.912C180.685 66.424 179.469 66.68 178.765 66.68H178.477C177.901 66.488 177.613 66.2 177.613 65.816C177.613 65.432 178.093 64.408 179.053 62.744C180.077 60.952 180.589 60.024 180.589 59.96C180.589 59.64 180.141 59.256 179.245 58.808C176.813 57.528 175.597 56.344 175.597 55.256C175.597 54.808 175.789 54.52 176.173 54.392C176.621 54.2 177.581 54.04 179.053 53.912C180.589 53.784 181.613 53.72 182.125 53.72C182.637 53.72 182.925 53.752 182.989 53.816H183.085C183.469 53.816 184.109 52.952 185.005 51.224C186.029 49.432 186.765 48.376 187.213 48.056ZM190.381 74.648C190.189 74.584 189.869 74.552 189.421 74.552C189.037 74.488 188.525 74.424 187.885 74.36C187.309 74.296 186.829 74.232 186.445 74.168L183.661 73.88L183.373 90.584C183.245 99.544 183.181 104.6 183.181 105.752V107.288L187.597 107.672L192.013 107.96L191.533 99.992C191.405 95.64 191.341 91.512 191.341 87.608V83.384L191.437 74.936L190.381 74.648ZM182.413 72.728C182.541 72.6 183.181 72.536 184.333 72.536C187.533 72.536 190.029 72.76 191.821 73.208L192.877 73.496L192.973 85.688C192.973 93.496 193.101 99.384 193.357 103.352C193.357 103.928 193.389 104.856 193.453 106.136C193.581 107.352 193.645 108.152 193.645 108.536C193.645 109.048 193.613 109.336 193.549 109.4C193.357 109.848 192.845 109.976 192.013 109.784C191.885 109.72 190.893 109.624 189.037 109.496C187.245 109.368 185.517 109.208 183.853 109.016C182.253 108.824 181.421 108.6 181.357 108.344C181.293 108.28 181.261 107.864 181.261 107.096C181.261 105.56 181.357 103.64 181.549 101.336C181.741 97.752 181.901 91.96 182.029 83.96C182.029 76.664 182.157 72.92 182.413 72.728ZM217.233 99.128C217.105 99.128 216.529 98.712 215.505 97.88C214.545 97.048 214.001 96.632 213.873 96.632C213.553 96.632 212.913 97.752 211.953 99.992C210.993 102.168 210.513 103.576 210.513 104.216C210.513 104.792 211.153 105.08 212.433 105.08C213.777 105.08 215.057 105.336 216.273 105.848C217.361 106.232 219.665 106.488 223.185 106.616C225.809 106.616 227.825 106.392 229.233 105.944C230.641 105.496 232.113 104.568 233.649 103.16C234.353 102.52 234.801 101.944 234.993 101.432C235.185 100.856 235.345 99.8 235.473 98.264C235.473 98.008 235.473 97.688 235.473 97.304C235.537 96.856 235.569 96.568 235.569 96.44C235.569 95.288 235.121 94.232 234.225 93.272C231.153 89.56 229.265 87.704 228.561 87.704C228.049 87.704 226.865 87.128 225.009 85.976C223.153 84.824 221.937 83.928 221.361 83.288C220.593 82.392 220.209 81.592 220.209 80.888C220.209 79.416 221.361 78.488 223.665 78.104C225.009 77.848 225.937 77.976 226.449 78.488C226.897 79.064 227.441 79.352 228.081 79.352C228.721 79.352 229.329 79.576 229.905 80.024C230.161 80.216 230.385 80.312 230.577 80.312C230.897 80.312 231.473 79.384 232.305 77.528C232.945 76.056 233.265 74.936 233.265 74.168C233.265 73.976 233.233 73.848 233.169 73.784C232.913 73.528 231.665 73.08 229.425 72.44C227.185 71.8 225.681 71.48 224.913 71.48H224.721C219.281 71.864 215.857 72.44 214.449 73.208C213.489 73.656 212.561 74.584 211.665 75.992C210.769 77.4 210.321 78.584 210.321 79.544C210.321 80.248 210.641 81.304 211.281 82.712C211.921 84.056 212.401 84.728 212.721 84.728C212.977 84.728 213.329 85.144 213.777 85.976C214.225 86.744 215.121 87.416 216.465 87.992C220.433 89.656 223.185 91.16 224.721 92.504C226.321 93.848 227.121 95.352 227.121 97.016C227.121 98.872 225.681 99.8 222.801 99.8C222.353 99.8 221.617 99.736 220.593 99.608C218.673 99.288 217.553 99.128 217.233 99.128ZM219.537 70.424C221.905 70.168 223.633 70.04 224.721 70.04C225.425 70.04 226.737 70.232 228.656 70.616C233.201 71.64 235.473 72.536 235.473 73.304C235.473 73.752 235.185 74.68 234.609 76.088C234.097 77.496 233.681 78.456 233.361 78.968C232.849 79.736 232.593 80.312 232.593 80.696C232.593 81.016 232.369 81.464 231.921 82.04C231.537 82.552 231.217 82.808 230.961 82.808C230.833 82.808 230.417 82.52 229.713 81.944C228.177 80.6 226.193 79.928 223.761 79.928C222.481 79.928 221.841 80.216 221.841 80.792C221.841 81.304 222.353 82.04 223.377 83C224.401 83.896 225.361 84.44 226.257 84.632C227.153 84.824 227.697 85.144 227.889 85.592C228.145 86.04 228.497 86.264 228.945 86.264C229.585 86.264 230.737 87.096 232.401 88.76C234.065 90.36 235.441 91.992 236.529 93.656C236.849 94.04 237.009 95.192 237.009 97.112C237.009 99.16 236.849 100.632 236.529 101.528C236.273 102.488 235.473 103.64 234.129 104.984C232.785 106.328 231.793 107 231.153 107C230.513 107 230.129 107.192 230.001 107.576C229.873 107.96 228.305 108.152 225.297 108.152C221.073 108.152 217.649 107.864 215.025 107.288C212.273 106.712 210.481 106.264 209.648 105.944C208.881 105.624 208.497 105.144 208.497 104.504C208.497 104.184 208.529 103.896 208.593 103.64C208.721 102.808 209.233 101.432 210.129 99.512C211.089 97.528 211.633 96.344 211.761 95.96C212.145 95.128 212.561 94.712 213.009 94.712C213.457 94.712 214.673 95.256 216.657 96.344C218.833 97.624 220.913 98.264 222.897 98.264C224.753 98.264 225.681 97.72 225.681 96.632C225.681 95.928 225.041 95 223.761 93.848C222.545 92.696 221.329 91.896 220.113 91.448C215.377 89.528 212.849 88.088 212.529 87.128C212.273 86.552 212.049 86.264 211.857 86.264C211.537 86.264 210.961 85.528 210.129 84.056C209.233 82.584 208.785 81.208 208.785 79.928C208.785 78.584 209.297 76.984 210.321 75.128C211.217 73.592 212.273 72.504 213.489 71.864C214.769 71.16 216.785 70.68 219.537 70.424ZM256.139 99.128C256.011 99.128 255.435 98.712 254.411 97.88C253.451 97.048 252.907 96.632 252.779 96.632C252.459 96.632 251.819 97.752 250.859 99.992C249.899 102.168 249.419 103.576 249.419 104.216C249.419 104.792 250.059 105.08 251.339 105.08C252.683 105.08 253.963 105.336 255.179 105.848C256.267 106.232 258.571 106.488 262.091 106.616C264.715 106.616 266.731 106.392 268.139 105.944C269.547 105.496 271.019 104.568 272.555 103.16C273.259 102.52 273.707 101.944 273.899 101.432C274.091 100.856 274.251 99.8 274.379 98.264C274.379 98.008 274.379 97.688 274.379 97.304C274.443 96.856 274.475 96.568 274.475 96.44C274.475 95.288 274.027 94.232 273.131 93.272C270.059 89.56 268.171 87.704 267.467 87.704C266.955 87.704 265.771 87.128 263.915 85.976C262.059 84.824 260.843 83.928 260.267 83.288C259.499 82.392 259.115 81.592 259.115 80.888C259.115 79.416 260.267 78.488 262.571 78.104C263.915 77.848 264.843 77.976 265.355 78.488C265.803 79.064 266.347 79.352 266.987 79.352C267.627 79.352 268.235 79.576 268.811 80.024C269.067 80.216 269.291 80.312 269.483 80.312C269.803 80.312 270.379 79.384 271.211 77.528C271.851 76.056 272.171 74.936 272.171 74.168C272.171 73.976 272.139 73.848 272.075 73.784C271.819 73.528 270.571 73.08 268.331 72.44C266.091 71.8 264.587 71.48 263.819 71.48H263.627C258.187 71.864 254.763 72.44 253.355 73.208C252.395 73.656 251.467 74.584 250.571 75.992C249.675 77.4 249.227 78.584 249.227 79.544C249.227 80.248 249.547 81.304 250.187 82.712C250.827 84.056 251.307 84.728 251.627 84.728C251.883 84.728 252.235 85.144 252.683 85.976C253.131 86.744 254.027 87.416 255.371 87.992C259.339 89.656 262.091 91.16 263.627 92.504C265.227 93.848 266.027 95.352 266.027 97.016C266.027 98.872 264.587 99.8 261.707 99.8C261.259 99.8 260.523 99.736 259.499 99.608C257.579 99.288 256.459 99.128 256.139 99.128ZM258.443 70.424C260.811 70.168 262.539 70.04 263.627 70.04C264.331 70.04 265.643 70.232 267.563 70.616C272.107 71.64 274.379 72.536 274.379 73.304C274.379 73.752 274.091 74.68 273.515 76.088C273.003 77.496 272.587 78.456 272.267 78.968C271.755 79.736 271.499 80.312 271.499 80.696C271.499 81.016 271.275 81.464 270.827 82.04C270.443 82.552 270.123 82.808 269.867 82.808C269.739 82.808 269.323 82.52 268.619 81.944C267.083 80.6 265.099 79.928 262.667 79.928C261.387 79.928 260.747 80.216 260.747 80.792C260.747 81.304 261.259 82.04 262.283 83C263.307 83.896 264.267 84.44 265.163 84.632C266.059 84.824 266.603 85.144 266.795 85.592C267.051 86.04 267.403 86.264 267.851 86.264C268.491 86.264 269.643 87.096 271.307 88.76C272.971 90.36 274.347 91.992 275.435 93.656C275.755 94.04 275.915 95.192 275.915 97.112C275.915 99.16 275.755 100.632 275.435 101.528C275.179 102.488 274.379 103.64 273.035 104.984C271.691 106.328 270.699 107 270.059 107C269.419 107 269.035 107.192 268.907 107.576C268.779 107.96 267.211 108.152 264.203 108.152C259.979 108.152 256.555 107.864 253.931 107.288C251.179 106.712 249.387 106.264 248.555 105.944C247.787 105.624 247.403 105.144 247.403 104.504C247.403 104.184 247.435 103.896 247.499 103.64C247.627 102.808 248.139 101.432 249.035 99.512C249.995 97.528 250.539 96.344 250.667 95.96C251.051 95.128 251.467 94.712 251.915 94.712C252.363 94.712 253.579 95.256 255.563 96.344C257.739 97.624 259.819 98.264 261.803 98.264C263.659 98.264 264.587 97.72 264.587 96.632C264.587 95.928 263.947 95 262.667 93.848C261.451 92.696 260.235 91.896 259.019 91.448C254.283 89.528 251.755 88.088 251.435 87.128C251.179 86.552 250.955 86.264 250.763 86.264C250.443 86.264 249.867 85.528 249.035 84.056C248.139 82.584 247.691 81.208 247.691 79.928C247.691 78.584 248.203 76.984 249.227 75.128C250.123 73.592 251.179 72.504 252.395 71.864C253.675 71.16 255.691 70.68 258.443 70.424ZM299.749 52.472C299.173 50.552 298.853 49.592 298.789 49.592C298.277 50.488 297.765 51.416 297.253 52.376C296.357 54.104 295.717 55.032 295.333 55.16C295.269 55.16 293.509 55.288 290.053 55.544H287.845L290.725 57.176C291.877 57.816 292.613 58.328 292.933 58.712C293.317 59.096 293.509 59.576 293.509 60.152C293.509 61.048 293.381 61.496 293.125 61.496C292.805 61.496 292.293 62.104 291.589 63.32L290.533 65.048L291.685 64.856C291.749 64.856 292.069 64.76 292.645 64.568C293.221 64.312 293.829 64.056 294.469 63.8C295.173 63.544 295.941 63.32 296.773 63.128C297.605 62.936 298.277 62.84 298.789 62.84C299.557 62.84 299.941 63.064 299.941 63.512C299.941 63.768 300.517 64.504 301.669 65.72C302.821 66.872 303.557 67.448 303.877 67.448C303.941 67.448 303.973 67.384 303.973 67.256C303.973 66.68 303.653 65.496 303.013 63.704C302.501 61.976 302.245 60.888 302.245 60.44C302.245 59.736 302.949 58.904 304.357 57.944L305.413 57.176L303.589 56.792C302.373 56.536 301.541 56.184 301.093 55.736C300.709 55.288 300.261 54.2 299.749 52.472ZM298.213 48.056C298.597 47.8 298.885 47.672 299.077 47.672C299.717 47.672 300.389 48.888 301.093 51.32L302.149 55.064L304.453 55.352C306.373 55.608 307.589 55.832 308.101 56.024C308.613 56.152 308.869 56.408 308.869 56.792C308.869 57.24 308.549 57.56 307.909 57.752C307.333 57.944 306.469 58.552 305.317 59.576L303.685 61.016L304.837 64.088C305.797 66.776 306.277 68.312 306.277 68.696C306.277 68.952 306.181 69.208 305.989 69.464C305.733 69.784 305.477 69.944 305.221 69.944C304.965 69.88 304.453 69.624 303.685 69.176C301.317 67.896 299.749 66.52 298.981 65.048C298.597 64.344 298.085 64.152 297.445 64.472C296.549 64.92 295.205 65.4 293.413 65.912C291.685 66.424 290.469 66.68 289.765 66.68H289.477C288.901 66.488 288.613 66.2 288.613 65.816C288.613 65.432 289.093 64.408 290.053 62.744C291.077 60.952 291.589 60.024 291.589 59.96C291.589 59.64 291.141 59.256 290.245 58.808C287.813 57.528 286.597 56.344 286.597 55.256C286.597 54.808 286.789 54.52 287.173 54.392C287.621 54.2 288.581 54.04 290.053 53.912C291.589 53.784 292.613 53.72 293.125 53.72C293.637 53.72 293.925 53.752 293.989 53.816H294.085C294.469 53.816 295.109 52.952 296.005 51.224C297.029 49.432 297.765 48.376 298.213 48.056ZM301.381 74.648C301.189 74.584 300.869 74.552 300.421 74.552C300.037 74.488 299.525 74.424 298.885 74.36C298.309 74.296 297.829 74.232 297.445 74.168L294.661 73.88L294.373 90.584C294.245 99.544 294.181 104.6 294.181 105.752V107.288L298.597 107.672L303.013 107.96L302.533 99.992C302.405 95.64 302.341 91.512 302.341 87.608V83.384L302.437 74.936L301.381 74.648ZM293.413 72.728C293.541 72.6 294.181 72.536 295.333 72.536C298.533 72.536 301.029 72.76 302.821 73.208L303.877 73.496L303.973 85.688C303.973 93.496 304.101 99.384 304.357 103.352C304.357 103.928 304.389 104.856 304.453 106.136C304.581 107.352 304.645 108.152 304.645 108.536C304.645 109.048 304.613 109.336 304.549 109.4C304.357 109.848 303.845 109.976 303.013 109.784C302.885 109.72 301.893 109.624 300.037 109.496C298.245 109.368 296.517 109.208 294.853 109.016C293.253 108.824 292.421 108.6 292.357 108.344C292.293 108.28 292.261 107.864 292.261 107.096C292.261 105.56 292.357 103.64 292.549 101.336C292.741 97.752 292.901 91.96 293.029 83.96C293.029 76.664 293.157 72.92 293.413 72.728ZM343.209 71.864C343.209 71.48 343.081 71.224 342.825 71.096C342.569 70.968 341.929 70.904 340.905 70.904H338.984C336.233 70.904 334.025 71.16 332.361 71.672C331.209 71.992 329.993 72.472 328.713 73.112C327.497 73.688 326.889 74.104 326.889 74.36C326.889 74.424 326.473 75 325.641 76.088C323.849 78.136 322.569 81.08 321.801 84.92C321.289 87.16 321.033 89.176 321.033 90.968C321.033 93.08 321.673 95.288 322.953 97.592C324.233 99.896 325.193 101.432 325.833 102.2C326.537 102.904 326.889 103.384 326.889 103.64C326.889 103.96 328.937 104.984 333.033 106.712C334.249 107.288 336.457 107.64 339.656 107.768C340.361 107.832 341.225 107.864 342.249 107.864C343.849 107.864 345.193 107.576 346.281 107C347.561 106.296 348.201 105.816 348.201 105.56C348.201 105.368 348.489 105.144 349.065 104.888C349.769 104.632 350.761 103.512 352.041 101.528C353.385 99.544 354.249 97.848 354.633 96.44C355.081 94.904 355.305 93.016 355.305 90.776C355.305 87.576 354.921 85.24 354.153 83.768C353.961 83.448 353.737 82.648 353.481 81.368C353.161 79.32 352.105 77.4 350.313 75.608C348.585 73.816 346.889 72.92 345.225 72.92C343.881 72.92 343.209 72.568 343.209 71.864ZM324.969 103.544C324.777 103.544 324.169 102.744 323.145 101.144C322.121 99.48 321.513 98.648 321.321 98.648C321.129 98.648 321.097 98.488 321.225 98.168C321.353 97.784 321.289 97.592 321.033 97.592C320.649 97.592 320.297 96.92 319.977 95.576C319.657 94.232 319.497 92.792 319.497 91.256C319.497 89.08 319.753 86.776 320.265 84.344C320.841 81.272 321.865 78.68 323.337 76.568C324.553 74.712 325.513 73.432 326.217 72.728C326.281 72.664 326.505 72.504 326.889 72.248C327.273 71.928 327.625 71.672 327.945 71.48C328.265 71.224 328.489 71.16 328.617 71.288C328.809 71.48 328.905 71.416 328.905 71.096C328.905 70.84 329.129 70.648 329.577 70.52C331.177 70.392 332.233 70.136 332.745 69.752C332.809 69.688 334.601 69.592 338.121 69.464H339.945C342.313 69.464 344.009 69.784 345.033 70.424C346.121 71.064 346.889 71.384 347.337 71.384C347.785 71.384 349.449 72.632 352.329 75.128C353.225 75.896 353.737 76.632 353.865 77.336C353.993 77.912 354.185 78.424 354.441 78.872C355.081 80.152 355.785 82.52 356.553 85.976C356.809 87 356.937 88.28 356.937 89.816C356.937 92.184 356.649 94.552 356.073 96.92C355.497 99.224 354.761 100.856 353.865 101.816C353.481 102.2 353.033 102.84 352.521 103.736C352.073 104.568 351.529 105.176 350.889 105.56C350.057 106.008 349.641 106.36 349.641 106.616C349.641 106.872 348.937 107.384 347.529 108.152C346.185 108.856 345.001 109.336 343.977 109.592C343.657 109.72 343.017 109.784 342.057 109.784C339.305 109.784 335.945 109.176 331.977 107.96C328.073 106.744 325.961 105.592 325.641 104.504C325.449 103.864 325.225 103.544 324.969 103.544ZM341.001 83.096C340.745 82.008 340.361 81.048 339.849 80.216L338.984 78.872L337.449 81.752C336.361 83.672 335.817 84.888 335.817 85.4C335.817 86.232 334.601 86.68 332.169 86.744C330.697 86.872 329.609 87.032 328.905 87.224C328.521 87.288 328.329 87.384 328.329 87.512C328.329 87.768 329.225 88.344 331.017 89.24C332.169 89.816 332.937 90.264 333.321 90.584C333.705 90.904 333.897 91.288 333.897 91.736C333.897 92.184 333.449 93.368 332.553 95.288C331.977 96.568 331.817 97.304 332.073 97.496C332.201 97.688 332.393 97.624 332.649 97.304C332.969 96.92 333.225 96.792 333.417 96.92C333.673 97.112 333.801 97.048 333.801 96.728C333.801 96.408 334.345 95.96 335.433 95.384C336.585 94.744 337.417 94.168 337.929 93.656C338.441 93.144 338.889 92.888 339.273 92.888C339.977 92.888 341.129 93.656 342.729 95.192C344.329 96.792 345.257 97.592 345.513 97.592C344.937 94.456 344.585 92.408 344.457 91.448C344.329 90.04 344.265 89.272 344.265 89.144C344.265 88.504 344.521 88.184 345.033 88.184C345.673 88.184 346.313 87.928 346.953 87.416C347.337 87.096 347.529 86.84 347.529 86.648C347.529 86.2 346.313 85.72 343.881 85.208C342.729 84.888 341.993 84.632 341.673 84.44C341.353 84.184 341.129 83.736 341.001 83.096ZM336.009 81.08C336.841 79.352 337.385 78.264 337.641 77.816C337.961 77.368 338.313 77.144 338.697 77.144H338.984C339.817 77.336 340.681 78.392 341.577 80.312C342.217 81.656 342.729 82.52 343.113 82.904C343.561 83.224 344.521 83.608 345.993 84.056C347.913 84.632 349.097 85.08 349.545 85.4C350.057 85.848 350.249 86.456 350.121 87.224C350.057 87.608 349.897 87.704 349.641 87.512C349.321 87.32 349.161 87.352 349.161 87.608C349.161 87.864 348.585 88.344 347.433 89.048C346.217 89.688 345.705 90.328 345.897 90.968C345.897 91.096 346.185 92.408 346.761 94.904C347.017 95.992 347.145 96.952 347.145 97.784C347.145 99 346.825 99.608 346.185 99.608C345.353 99.608 344.009 98.68 342.153 96.824C340.617 95.288 339.689 94.52 339.369 94.52L339.273 94.616C339.273 94.872 338.985 95.192 338.409 95.576C337.833 95.96 337.193 96.344 336.489 96.728C335.849 97.048 335.465 97.272 335.337 97.4C333.737 99 332.457 99.864 331.497 99.992C330.985 100.12 330.665 100.056 330.537 99.8C330.409 99.544 330.345 98.968 330.345 98.072C330.345 96.728 330.697 95.416 331.401 94.136C332.105 92.792 332.393 92.056 332.265 91.928C332.201 91.864 331.209 91.288 329.289 90.2C327.369 89.112 326.409 88.216 326.409 87.512C326.409 86.68 327.049 86.104 328.329 85.784C329.609 85.4 330.857 85.208 332.073 85.208H334.089L336.009 81.08ZM387.471 71.864C387.407 71.864 387.087 71.992 386.511 72.248C385.999 72.504 385.455 72.728 384.879 72.92L384.111 73.304C384.047 73.304 383.503 73.432 382.479 73.688C382.287 73.752 382.031 73.784 381.711 73.784C380.751 73.784 380.271 73.304 380.271 72.344C380.271 71.384 380.751 70.424 381.711 69.464C382.223 69.016 382.607 68.696 382.863 68.504C383.119 68.312 383.247 68.248 383.247 68.312C383.247 68.568 383.503 68.312 384.015 67.544C384.399 66.968 384.623 66.584 384.687 66.392C384.687 66.328 384.623 66.296 384.495 66.296C384.367 66.232 384.175 66.232 383.919 66.296C383.727 66.36 383.503 66.424 383.247 66.488C382.735 66.68 382.383 66.776 382.191 66.776C381.743 66.776 381.007 66.136 379.983 64.856C379.535 64.216 379.087 63.48 378.639 62.648C378.127 61.752 377.839 61.592 377.775 62.168C377.775 62.808 377.487 63.704 376.911 64.856C376.783 65.176 376.687 65.4 376.623 65.528C376.559 65.656 376.463 65.816 376.335 66.008C376.271 66.2 376.175 66.328 376.047 66.392C375.919 66.392 375.791 66.424 375.663 66.488C375.535 66.488 375.343 66.488 375.087 66.488C374.959 66.488 374.735 66.488 374.415 66.488C374.095 66.424 373.807 66.392 373.551 66.392C373.423 66.392 373.199 66.392 372.879 66.392C372.623 66.328 372.463 66.296 372.399 66.296C371.183 66.296 370.575 66.488 370.575 66.872C370.575 67.192 371.023 67.544 371.919 67.928C372.367 68.12 372.687 68.312 372.879 68.504C373.071 68.696 373.135 68.856 373.071 68.984C372.879 69.304 372.943 69.464 373.263 69.464C373.519 69.464 373.679 69.56 373.743 69.752C373.871 69.944 373.871 70.168 373.743 70.424C373.615 70.68 373.423 70.904 373.167 71.096C372.655 71.48 371.983 72.44 371.151 73.976L369.807 76.28L371.439 75.8C372.527 75.48 373.519 75.32 374.415 75.32C375.311 75.32 375.759 75.448 375.759 75.704C375.759 75.768 375.759 76.184 375.759 76.952C375.823 77.72 375.887 78.872 375.951 80.408C376.015 81.88 376.079 83.256 376.143 84.536C376.335 88.312 376.431 92.6 376.431 97.4V99.704L376.335 106.52H385.167L384.879 104.408C384.623 103.064 384.495 100.088 384.495 95.48C384.495 91.96 384.591 89.112 384.783 86.936C385.039 83.992 385.167 82.488 385.167 82.424C385.359 81.976 385.903 81.272 386.799 80.312C387.759 79.352 388.623 78.872 389.391 78.872C389.519 78.872 390.095 78.936 391.119 79.064C392.591 79.256 393.743 79.672 394.575 80.312C395.407 80.952 396.239 82.104 397.071 83.768C397.775 85.176 398.351 87.128 398.799 89.624C399.119 90.968 399.439 95.192 399.759 102.296C399.887 104.984 399.983 106.392 400.047 106.52C400.047 106.712 400.911 106.808 402.639 106.808C404.623 106.808 406.031 106.904 406.863 107.096L408.399 107.48L408.111 102.68C407.727 96.664 407.087 91.096 406.191 85.976C405.359 81.56 404.591 79.352 403.887 79.352C403.567 79.352 403.503 79.256 403.695 79.064V78.968L403.791 78.872C403.791 78.424 403.471 77.656 402.831 76.568C402.191 75.416 401.551 74.488 400.911 73.784C399.119 71.8 396.623 70.808 393.423 70.808C392.207 70.808 390.927 71 389.583 71.384C388.239 71.768 387.535 71.928 387.471 71.864ZM376.815 60.632C377.199 59.544 377.519 59 377.775 59C378.095 59 378.607 59.608 379.311 60.824C380.207 62.168 380.815 62.936 381.135 63.128C381.519 63.32 381.711 63.704 381.711 64.28C381.711 64.792 382.095 64.952 382.863 64.76C383.887 64.504 384.815 64.376 385.647 64.376C386.671 64.376 387.183 64.664 387.183 65.24C387.183 66.008 386.351 67.224 384.687 68.888C383.023 70.552 382.191 71.48 382.191 71.672C382.191 71.736 382.287 71.768 382.479 71.768C383.439 71.768 384.687 71.384 386.223 70.616C387.887 69.784 390.383 69.368 393.711 69.368H394.479C395.887 69.432 397.231 69.688 398.511 70.136C399.855 70.52 400.527 70.936 400.527 71.384C400.527 71.512 400.687 71.672 401.007 71.864C401.391 72.056 401.711 72.248 401.967 72.44C402.287 72.568 402.383 72.728 402.255 72.92C402.063 73.24 402.127 73.4 402.447 73.4C402.767 73.4 403.471 74.424 404.559 76.472C405.647 78.456 406.319 79.992 406.575 81.08C408.047 87.032 409.007 93.368 409.455 100.088C409.711 103.8 409.839 105.816 409.839 106.136C409.839 107.224 409.711 107.96 409.455 108.344C409.263 108.664 408.879 108.824 408.303 108.824C408.111 108.824 407.503 108.76 406.479 108.632C405.199 108.44 403.567 108.344 401.583 108.344C399.919 108.216 398.927 107.96 398.607 107.576C398.415 107.192 398.255 105.72 398.127 103.16C397.871 96.696 397.615 92.632 397.359 90.968C396.335 85.528 395.407 82.808 394.575 82.808C394.255 82.808 394.095 82.552 394.095 82.04C394.095 81.656 393.743 81.336 393.039 81.08C391.759 80.76 390.799 80.6 390.159 80.6C388.879 80.6 387.983 81.144 387.471 82.232C387.023 83.256 386.671 85.208 386.415 88.088C386.159 91.16 386.031 94.04 386.031 96.728C386.031 98.2 386.223 100.088 386.607 102.392C387.055 104.696 387.279 106.424 387.279 107.576C387.279 107.96 385.263 108.152 381.231 108.152C376.623 108.088 374.319 107.992 374.319 107.864C374.319 107.8 374.383 107.704 374.511 107.576C374.703 107.256 374.799 104.12 374.799 98.168C374.799 93.752 374.735 90.776 374.607 89.24C374.415 88.28 374.319 85.912 374.319 82.136C374.191 78.744 374.031 77.048 373.839 77.048C373.711 77.048 373.327 77.144 372.687 77.336C372.111 77.464 371.631 77.528 371.247 77.528C370.031 77.528 369.263 77.368 368.943 77.048C368.687 76.792 368.559 76.504 368.559 76.184C368.559 75.672 368.911 74.712 369.615 73.304C370.575 71.384 371.215 70.424 371.535 70.424C371.663 70.424 371.535 70.232 371.151 69.848C370.831 69.464 370.319 68.952 369.615 68.312C368.079 66.904 367.311 66.008 367.311 65.624C367.311 65.112 368.975 64.824 372.303 64.76C373.775 64.696 374.703 64.472 375.087 64.088C375.535 63.704 376.111 62.552 376.815 60.632Z" fill="white"/>
<path d="M63.6656 162V158.784H65.5856C66.9616 158.784 67.6496 158.016 67.6496 156.48V151.488C67.6496 150.176 67.8736 149.024 68.3216 148.032C68.7696 147.04 69.6656 146.32 71.0096 145.872L65.2976 144.624V140.016C66.5136 138.896 68.1296 137.888 70.1456 136.992C72.1936 136.064 74.5936 135.6 77.3456 135.6C81.1216 135.6 83.9536 136.4 85.8416 138C87.7616 139.568 88.7216 142.064 88.7216 145.488V162H84.7856V145.344C84.7856 142.944 84.2256 141.28 83.1056 140.352C81.9856 139.424 80.0656 138.96 77.3456 138.96C75.5536 138.96 73.8736 139.216 72.3056 139.728C70.7696 140.208 69.5856 140.864 68.7536 141.696V142.704L74.6576 144.048V147.024C73.4736 147.376 72.6576 147.872 72.2096 148.512C71.7936 149.152 71.5856 150.176 71.5856 151.584V156.72C71.5856 160.24 69.9376 162 66.6416 162H63.6656ZM105.839 162V145.248C105.839 143.808 105.695 142.624 105.407 141.696C105.119 140.768 104.527 140.08 103.631 139.632C102.767 139.184 101.439 138.96 99.6465 138.96C98.6225 138.96 97.5025 139.072 96.2865 139.296C95.1025 139.52 94.0145 139.824 93.0225 140.208V136.944C93.9825 136.56 95.1185 136.24 96.4305 135.984C97.7425 135.728 99.0545 135.6 100.367 135.6C103.663 135.6 106.047 136.336 107.519 137.808C109.023 139.248 109.775 141.584 109.775 144.816V162H105.839ZM124.724 162.48C123.124 162.48 121.556 162.368 120.02 162.144C118.516 161.952 117.252 161.648 116.228 161.232V157.728C117.444 158.208 118.74 158.56 120.116 158.784C121.492 159.008 122.804 159.12 124.052 159.12C126.388 159.12 128.132 158.896 129.284 158.448C130.468 157.968 131.06 156.944 131.06 155.376C131.06 154.256 130.756 153.424 130.148 152.88C129.572 152.304 128.74 151.84 127.652 151.488C126.564 151.104 125.252 150.656 123.716 150.144C122.308 149.664 120.98 149.136 119.732 148.56C118.484 147.952 117.476 147.184 116.708 146.256C115.94 145.328 115.556 144.112 115.556 142.608C115.556 140.336 116.388 138.608 118.052 137.424C119.748 136.208 122.26 135.6 125.588 135.6C126.996 135.6 128.388 135.712 129.764 135.936C131.14 136.16 132.292 136.432 133.22 136.752V140.208C132.164 139.792 131.012 139.488 129.764 139.296C128.548 139.072 127.348 138.96 126.164 138.96C123.988 138.96 122.324 139.2 121.172 139.68C120.052 140.128 119.492 141.072 119.492 142.512C119.492 143.44 119.78 144.192 120.356 144.768C120.964 145.312 121.812 145.792 122.9 146.208C124.02 146.592 125.364 147.04 126.932 147.552C128.5 148.064 129.892 148.64 131.108 149.28C132.324 149.888 133.268 150.672 133.94 151.632C134.644 152.56 134.996 153.792 134.996 155.328C134.996 157.92 134.052 159.76 132.164 160.848C130.276 161.936 127.796 162.48 124.724 162.48ZM141.327 162V151.488C141.327 150.176 141.631 149.024 142.239 148.032C142.847 147.008 143.839 146.288 145.215 145.872L139.791 144.624V140.016C141.007 138.896 142.623 137.888 144.639 136.992C146.687 136.064 149.087 135.6 151.839 135.6C155.615 135.6 158.447 136.4 160.335 138C162.255 139.568 163.215 142.064 163.215 145.488V162H159.279V145.344C159.279 142.944 158.719 141.28 157.599 140.352C156.479 139.424 154.559 138.96 151.839 138.96C150.047 138.96 148.367 139.216 146.799 139.728C145.263 140.208 144.079 140.864 143.247 141.696V142.704L148.863 144.048V147.024C147.647 147.344 146.735 147.856 146.127 148.56C145.551 149.232 145.263 150.24 145.263 151.584V162H141.327ZM144.13 131.712L144.322 128.88H163.186V131.712H144.13ZM179.746 162.48C179.202 162.48 178.562 162.432 177.826 162.336C177.122 162.24 176.546 162.112 176.098 161.952L172.066 151.2H168.994L169.186 147.984H174.61L178.786 159.12C180.29 159.248 181.714 159.008 183.058 158.4C184.402 157.76 185.49 156.656 186.322 155.088C187.154 153.52 187.57 151.408 187.57 148.752C187.57 146.352 187.25 144.432 186.61 142.992C185.97 141.552 184.93 140.528 183.49 139.92C182.05 139.28 180.098 138.96 177.634 138.96C176.354 138.96 174.994 139.056 173.554 139.248C172.146 139.44 170.786 139.76 169.474 140.208V136.944C170.69 136.528 172.082 136.208 173.65 135.984C175.25 135.728 176.93 135.6 178.69 135.6C183.138 135.6 186.386 136.736 188.434 139.008C190.482 141.28 191.506 144.528 191.506 148.752C191.506 151.76 190.962 154.288 189.874 156.336C188.786 158.352 187.346 159.888 185.554 160.944C183.794 161.968 181.858 162.48 179.746 162.48ZM201.794 162L195.842 136.08H199.874L204.146 156.48L209.618 139.344V136.08H212.546L218.402 156.48L222.626 136.08H226.61L220.706 162H216.77L211.442 143.76L205.682 162H201.794ZM204.598 131.712L204.79 128.88H223.654V131.712H204.598ZM241.956 162.48C238.564 162.48 235.956 161.68 234.132 160.08C232.34 158.448 231.444 156.128 231.444 153.12V149.616C231.444 148.656 231.668 147.744 232.116 146.88C232.564 146.016 233.092 145.2 233.7 144.432C234.308 143.664 234.836 142.944 235.284 142.272C235.732 141.6 235.956 140.976 235.956 140.4C235.956 139.856 235.828 139.52 235.572 139.392C235.348 139.232 234.948 139.152 234.372 139.152H230.916L231.252 136.08H236.58C238.788 136.08 239.892 137.168 239.892 139.344C239.892 140.432 239.668 141.408 239.22 142.272C238.772 143.136 238.244 143.968 237.636 144.768C237.028 145.568 236.5 146.368 236.052 147.168C235.604 147.968 235.38 148.832 235.38 149.76V153.552C235.38 155.536 235.972 156.96 237.156 157.824C238.34 158.688 239.94 159.12 241.956 159.12C244.004 159.12 245.62 158.688 246.804 157.824C248.02 156.96 248.628 155.504 248.628 153.456V150.144C248.628 148.352 248.34 147.136 247.764 146.496C247.188 145.824 246.132 145.488 244.596 145.488H243.252L243.444 142.368H244.5C246.132 142.368 247.22 141.984 247.764 141.216C248.34 140.448 248.628 139.28 248.628 137.712V135.6H252.564V137.664C252.564 139.232 252.34 140.544 251.892 141.6C251.444 142.624 250.484 143.392 249.012 143.904C250.58 144.48 251.556 145.296 251.94 146.352C252.356 147.408 252.564 148.704 252.564 150.24V153.072C252.564 156.08 251.62 158.4 249.732 160.032C247.876 161.664 245.284 162.48 241.956 162.48ZM233.473 131.712L233.665 128.88H252.529V131.712H233.473ZM268.706 162.48C266.722 162.48 264.946 162.016 263.378 161.088C261.81 160.16 260.578 158.736 259.682 156.816C258.786 154.864 258.338 152.352 258.338 149.28C258.338 144.896 259.026 141.52 260.402 139.152C261.81 136.784 263.81 135.6 266.402 135.6C267.682 135.6 268.722 135.824 269.522 136.272C270.322 136.72 271.026 137.344 271.634 138.144C272.338 137.344 273.202 136.72 274.226 136.272C275.282 135.824 276.354 135.6 277.442 135.6C279.33 135.6 280.754 136.16 281.714 137.28C282.674 138.368 283.154 139.952 283.154 142.032V162H279.218V142.56C279.218 141.216 279.01 140.288 278.594 139.776C278.21 139.232 277.458 138.96 276.338 138.96C275.634 138.96 274.978 139.136 274.37 139.488C273.762 139.808 273.282 140.384 272.93 141.216H270.29C269.842 140.384 269.378 139.808 268.898 139.488C268.418 139.136 267.746 138.96 266.882 138.96C265.058 138.96 263.826 139.904 263.186 141.792C262.578 143.648 262.273 146.144 262.273 149.28C262.273 152.928 262.866 155.488 264.05 156.96C265.266 158.4 267.042 159.12 269.378 159.12C269.986 159.12 270.578 159.088 271.154 159.024C271.762 158.96 272.274 158.864 272.69 158.736V162C271.634 162.32 270.306 162.48 268.706 162.48ZM289.86 162V145.2C289.86 142.128 290.756 139.76 292.548 138.096C294.372 136.432 297.22 135.6 301.092 135.6C304.964 135.6 307.78 136.432 309.54 138.096C311.332 139.76 312.228 142.128 312.228 145.2V162H308.292V144.768C308.292 142.688 307.668 141.2 306.42 140.304C305.204 139.408 303.428 138.96 301.092 138.96C298.692 138.96 296.868 139.408 295.62 140.304C294.404 141.2 293.796 142.688 293.796 144.768V150.768C295.3 149.456 297.156 148.8 299.364 148.8H302.532L302.724 152.016H299.268C297.092 152.016 295.268 152.64 293.796 153.888V162H289.86ZM325.257 162.48C322.505 162.48 320.089 162.032 318.009 161.136V157.824C318.937 158.208 319.945 158.528 321.033 158.784C322.153 159.008 323.257 159.12 324.345 159.12C326.713 159.12 328.553 158.784 329.865 158.112C331.177 157.408 332.105 156.32 332.649 154.848C333.193 153.376 333.465 151.44 333.465 149.04C333.465 145.456 332.761 142.88 331.353 141.312C329.945 139.744 327.561 138.96 324.201 138.96C323.081 138.96 322.009 139.072 320.985 139.296C319.961 139.52 318.969 139.856 318.009 140.304V136.944C319.001 136.496 320.041 136.16 321.129 135.936C322.249 135.712 323.545 135.6 325.017 135.6C329.209 135.6 332.313 136.736 334.329 139.008C336.377 141.28 337.401 144.624 337.401 149.04C337.401 153.328 336.473 156.64 334.617 158.976C332.761 161.312 329.641 162.48 325.257 162.48ZM352.133 162.48C350.149 162.48 348.293 162.304 346.565 161.952C344.837 161.568 343.381 161.136 342.197 160.656V147.6H351.701L351.893 150.816H346.133V158.16C346.965 158.448 347.893 158.688 348.917 158.88C349.973 159.04 351.013 159.12 352.037 159.12C354.117 159.12 355.765 158.8 356.981 158.16C358.229 157.52 359.125 156.464 359.669 154.992C360.245 153.52 360.533 151.552 360.533 149.088C360.533 146.528 360.229 144.512 359.621 143.04C359.045 141.568 358.053 140.528 356.645 139.92C355.269 139.28 353.381 138.96 350.981 138.96C349.605 138.96 348.181 139.056 346.709 139.248C345.269 139.44 343.893 139.76 342.581 140.208V136.944C343.861 136.496 345.317 136.16 346.949 135.936C348.613 135.712 350.293 135.6 351.989 135.6C356.405 135.6 359.589 136.736 361.541 139.008C363.493 141.248 364.469 144.608 364.469 149.088C364.469 153.472 363.493 156.8 361.541 159.072C359.589 161.344 356.453 162.48 352.133 162.48ZM378.891 162.48C376.107 162.48 373.963 161.68 372.459 160.08C370.987 158.48 370.251 156.176 370.251 153.168V136.08H374.187V153.12C374.187 155.264 374.667 156.8 375.627 157.728C376.587 158.656 378.107 159.12 380.187 159.12C381.819 159.12 383.323 158.784 384.699 158.112C386.075 157.44 387.259 156.592 388.251 155.568V136.08H392.187V162H388.635L388.395 158.88C387.211 159.968 385.851 160.848 384.315 161.52C382.779 162.16 380.971 162.48 378.891 162.48ZM408.299 162.48C406.315 162.48 404.539 162.016 402.971 161.088C401.403 160.16 400.171 158.736 399.275 156.816C398.379 154.864 397.931 152.352 397.931 149.28C397.931 144.896 398.619 141.52 399.995 139.152C401.403 136.784 403.403 135.6 405.995 135.6C407.275 135.6 408.315 135.824 409.115 136.272C409.915 136.72 410.619 137.344 411.227 138.144C411.931 137.344 412.795 136.72 413.819 136.272C414.875 135.824 415.947 135.6 417.035 135.6C418.923 135.6 420.347 136.16 421.307 137.28C422.267 138.368 422.747 139.952 422.747 142.032V162H418.811V142.56C418.811 141.216 418.603 140.288 418.187 139.776C417.803 139.232 417.051 138.96 415.931 138.96C415.227 138.96 414.571 139.136 413.963 139.488C413.355 139.808 412.875 140.384 412.523 141.216H409.883C409.435 140.384 408.971 139.808 408.491 139.488C408.011 139.136 407.339 138.96 406.475 138.96C404.651 138.96 403.419 139.904 402.779 141.792C402.171 143.648 401.867 146.144 401.867 149.28C401.867 152.928 402.459 155.488 403.643 156.96C404.859 158.4 406.635 159.12 408.971 159.12C409.579 159.12 410.171 159.088 410.747 159.024C411.355 158.96 411.867 158.864 412.283 158.736V162C411.227 162.32 409.899 162.48 408.299 162.48ZM412.318 131.712V125.376H415.63V128.88H428.542L428.35 131.712H412.318ZM442.654 162.48C440.542 162.48 438.75 162.16 437.278 161.52C435.806 160.848 434.462 159.968 433.246 158.88L433.006 162H429.454V136.08H433.39V155.568C434.382 156.592 435.534 157.44 436.846 158.112C438.19 158.784 439.694 159.12 441.358 159.12C443.438 159.12 444.974 158.656 445.966 157.728C446.958 156.8 447.454 155.264 447.454 153.12V136.08H451.39V153.168C451.39 156.176 450.622 158.48 449.086 160.08C447.55 161.68 445.406 162.48 442.654 162.48Z" fill="white"/>
<path d="M490.5 118.5C490.5 150.936 464.638 180.431 422.529 201.846C380.448 223.248 322.279 236.5 258 236.5C193.721 236.5 135.552 223.248 93.4708 201.846C51.3623 180.431 25.5 150.936 25.5 118.5C25.5 86.0641 51.3623 56.5692 93.4708 35.1535C135.552 13.7519 193.721 0.5 258 0.5C322.279 0.5 380.448 13.7519 422.529 35.1535C464.638 56.5692 490.5 86.0641 490.5 118.5Z" stroke="white"/>
<path d="M467.5 5.19101L485.277 43.625L485.372 43.8303L485.589 43.8945L533.239 58L485.589 72.1055L485.372 72.1697L485.277 72.375L467.5 110.809L449.723 72.375L449.628 72.1697L449.411 72.1055L401.761 58L449.411 43.8945L449.628 43.8303L449.723 43.625L467.5 5.19101Z" stroke="white"/>
<path d="M47.5 150.191L59.8755 176.946L59.9705 177.152L60.1874 177.216L93.2385 187L60.1874 196.784L59.9705 196.848L59.8755 197.054L47.5 223.809L35.1245 197.054L35.0295 196.848L34.8126 196.784L1.76149 187L34.8126 177.216L35.0295 177.152L35.1245 176.946L47.5 150.191Z" stroke="white"/>
</svg>
